<svg width="500" height="373" viewBox="0 0 500 373" fill="none" xmlns="http://www.w3.org/2000/svg">
<g clip-path="url(#clip0_65_592)">
<path d="M500 327.45H0V327.7H500V327.45Z" fill="#EBEBEB"/>
<path d="M449.9 343.54H428.22V343.79H449.9V343.54Z" fill="#EBEBEB"/>
<path d="M344.67 338.35H310.56V338.6H344.67V338.35Z" fill="#EBEBEB"/>
<path d="M441.12 334.26H396.59V334.51H441.12V334.26Z" fill="#EBEBEB"/>
<path d="M173.02 339.3H161.88V339.55H173.02V339.3Z" fill="#EBEBEB"/>
<path d="M152.97 339.3H114.58V339.55H152.97V339.3Z" fill="#EBEBEB"/>
<path d="M94.01 335.08H66.31V335.33H94.01V335.08Z" fill="#EBEBEB"/>
<path d="M237.01 282.85H43.91C40.76 282.85 38.2 280.29 38.2 277.14V5.71C38.2 2.56 40.76 0 43.91 0H237.01C240.16 0 242.72 2.56 242.72 5.71V277.14C242.72 280.29 240.16 282.85 237.01 282.85ZM43.91 0.25C40.9 0.25 38.45 2.7 38.45 5.71V277.14C38.45 280.15 40.9 282.6 43.91 282.6H237.01C240.02 282.6 242.47 280.15 242.47 277.14V5.71C242.47 2.7 240.02 0.25 237.01 0.25H43.91Z" fill="#EBEBEB"/>
<path d="M453.31 282.85H260.21C257.06 282.85 254.5 280.29 254.5 277.14V5.71C254.5 2.56 257.06 0 260.21 0H453.31C456.46 0 459.02 2.56 459.02 5.71V277.14C459.02 280.29 456.46 282.85 453.31 282.85ZM260.21 0.25C257.2 0.25 254.75 2.7 254.75 5.71V277.14C254.75 280.15 257.2 282.6 260.21 282.6H453.31C456.32 282.6 458.77 280.15 458.77 277.14V5.71C458.77 2.7 456.32 0.25 453.31 0.25H260.21Z" fill="#EBEBEB"/>
<path d="M114.98 119.67C126.53 119.67 135.89 110.31 135.89 98.76C135.89 87.21 126.53 77.85 114.98 77.85H112.42V119.67H114.98Z" fill="#E0E0E0"/>
<path d="M112.41 119.67C123.958 119.67 133.32 110.308 133.32 98.76C133.32 87.2117 123.958 77.85 112.41 77.85C100.862 77.85 91.5 87.2117 91.5 98.76C91.5 110.308 100.862 119.67 112.41 119.67Z" fill="#F5F5F5"/>
<path d="M111.45 101.39C96.02 101.39 83.46 88.8299 83.46 73.3999V56.6799C83.46 55.2299 84.64 54.0499 86.09 54.0499C87.54 54.0499 88.72 55.2299 88.72 56.6799V73.3999C88.72 85.9399 98.92 96.1299 111.45 96.1299C112.9 96.1299 114.08 97.3099 114.08 98.7599C114.08 100.21 112.9 101.39 111.45 101.39Z" fill="#E0E0E0"/>
<path d="M62.83 71.4H109.35C112.54 71.4 114.86 68.38 114.05 65.3L110.01 50.06C109.45 47.93 107.52 46.45 105.31 46.45H66.86C64.66 46.45 62.73 47.93 62.16 50.06L58.12 65.3C57.3 68.38 59.63 71.4 62.82 71.4H62.83Z" fill="#F5F5F5"/>
<path d="M410.28 119.67C421.83 119.67 431.19 110.31 431.19 98.76C431.19 87.21 421.83 77.85 410.28 77.85H407.72V119.67H410.28Z" fill="#E0E0E0"/>
<path d="M407.71 119.67C419.258 119.67 428.62 110.308 428.62 98.76C428.62 87.2117 419.258 77.85 407.71 77.85C396.162 77.85 386.8 87.2117 386.8 98.76C386.8 110.308 396.162 119.67 407.71 119.67Z" fill="#F5F5F5"/>
<path d="M406.75 101.39C391.32 101.39 378.76 88.8299 378.76 73.3999V56.6799C378.76 55.2299 379.94 54.0499 381.39 54.0499C382.84 54.0499 384.02 55.2299 384.02 56.6799V73.3999C384.02 85.9399 394.22 96.1299 406.75 96.1299C408.2 96.1299 409.38 97.3099 409.38 98.7599C409.38 100.21 408.2 101.39 406.75 101.39Z" fill="#E0E0E0"/>
<path d="M358.13 71.4H404.65C407.84 71.4 410.16 68.38 409.35 65.3L405.31 50.06C404.75 47.93 402.82 46.45 400.61 46.45H362.16C359.96 46.45 358.03 47.93 357.46 50.06L353.42 65.3C352.6 68.38 354.93 71.4 358.12 71.4H358.13Z" fill="#F5F5F5"/>
<path d="M133.98 260.9H149.19V201.97H133.98V260.9Z" fill="#E6E6E6"/>
<path d="M92.75 260.9H143.22L150.84 191.93H100.37L92.75 260.9Z" fill="#F0F0F0"/>
<path d="M87.28 260.9H139.42L147.04 191.93H94.91L87.28 260.9Z" fill="#F5F5F5"/>
<path d="M135.65 255.47L142.07 197.36H98.67L92.25 255.47H135.65Z" fill="white"/>
<path d="M126.69 241.38L126.95 239.01C128.56 224.43 119.46 211.44 107.64 211.44L107.38 213.81C105.77 228.39 114.87 241.38 126.69 241.38Z" fill="#F5F5F5"/>
<path d="M59.09 327.45H103.93L103.93 260.9H59.09L59.09 327.45Z" fill="#E6E6E6"/>
<path d="M63.59 327.45H59.08V314.62H68.32L63.59 327.45Z" fill="#F0F0F0"/>
<path d="M184.76 327.45H229.6V260.9H184.76V327.45Z" fill="#E6E6E6"/>
<path d="M59.08 319.57H188.69V260.9H59.08V319.57Z" fill="#F0F0F0"/>
<path d="M184.18 327.45H188.69V314.62H179.45L184.18 327.45Z" fill="#F0F0F0"/>
<path d="M62.58 288.25H185.19V264.57H62.58V288.25Z" fill="#E6E6E6"/>
<path d="M115.71 280.01H132.06C139.16 280.01 145.95 277.09 150.84 271.93H96.93C101.82 277.09 108.61 280.01 115.71 280.01Z" fill="#F0F0F0"/>
<path d="M62.58 315.75H185.19V292.07H62.58V315.75Z" fill="#E6E6E6"/>
<path d="M115.71 307.51H132.06C139.16 307.51 145.95 304.59 150.84 299.43H96.93C101.82 304.59 108.61 307.51 115.71 307.51Z" fill="#F0F0F0"/>
<path d="M180.48 258.19H181.64C181.63 255.8 181.64 249.75 181.76 235.88C181.97 210.74 182.37 209.2 182.37 209.2L179.61 220.81C177.86 233.66 180.12 246.58 180.48 258.19Z" fill="#E6E6E6"/>
<path d="M178.19 219.08C174.22 214.35 165.74 212.97 157.06 211.79C153.65 211.33 166.02 219.12 172.06 224.65C176.76 228.95 179.76 230.14 181.05 234.42C181.72 229.08 181.61 223.15 178.19 219.07V219.08Z" fill="#E6E6E6"/>
<path d="M183.46 227.53C187.43 222.8 195.91 221.42 204.59 220.24C208 219.78 195.63 227.57 189.59 233.1C184.89 237.4 181.89 238.59 180.6 242.87C179.93 237.53 180.04 231.6 183.46 227.52V227.53Z" fill="#E6E6E6"/>
<path d="M181.76 208.09C184.74 202.44 192.23 197.11 200.63 195.09C203.93 194.3 192.99 205.53 188.83 212.78C185.6 218.41 181.31 225.02 180.65 229.77C179.64 220.36 178.79 213.75 181.76 208.09Z" fill="#E6E6E6"/>
<path d="M181.4 260.9C177.85 260.9 174.92 259.12 174.72 256.85L174.13 252.96H188.67L188.08 256.85C187.88 259.12 184.95 260.9 181.4 260.9Z" fill="#F0F0F0"/>
<path d="M189.62 254.46H173.19L172.72 250.13H190.09L189.62 254.46Z" fill="#F0F0F0"/>
<path d="M169.54 171.77L329.75 171.77V25.64L169.54 25.64L169.54 171.77Z" fill="#E6E6E6"/>
<path d="M165.94 171.77L328.18 171.77V25.64L165.94 25.64L165.94 171.77Z" fill="#F5F5F5"/>
<path d="M321.71 165.23V32.1901L172.41 32.1901V165.23H321.71Z" fill="#FAFAFA"/>
<path d="M303.39 165.22L244.63 32.1901H224.67L283.43 165.22H303.39Z" fill="white"/>
<path d="M277.77 165.22L219.01 32.1901H205.27L264.03 165.22H277.77Z" fill="white"/>
<path d="M227.85 165.22V32.1801H220.13V165.22H227.85Z" fill="#E6E6E6"/>
<path d="M279.17 165.22V32.1801H271.45V165.22H279.17Z" fill="#E6E6E6"/>
<path d="M226.45 169.38V27.3201H216.69V169.38H226.45Z" fill="#F5F5F5"/>
<path d="M277.77 169.38V27.3201H268.01V169.38H277.77Z" fill="#F5F5F5"/>
<path d="M173.09 165.22V32.1801H172.4V165.22H173.09Z" fill="#E6E6E6"/>
<path d="M163.22 17.22H336.79C337.25 17.22 337.62 17.6 337.62 18.05C337.62 18.51 337.24 18.88 336.79 18.88H163.22C162.76 18.88 162.39 18.5 162.39 18.05C162.39 17.59 162.77 17.22 163.22 17.22Z" fill="#E6E6E6"/>
<path d="M329.75 22.7299C330.37 22.7299 330.88 22.2199 330.88 21.5999V19.1799C330.88 18.5599 330.37 18.0499 329.75 18.0499C329.13 18.0499 328.62 18.5599 328.62 19.1799V21.5999C328.62 22.2199 329.13 22.7299 329.75 22.7299Z" fill="#E6E6E6"/>
<path d="M175.8 22.7299C176.42 22.7299 176.93 22.2199 176.93 21.5999V19.1799C176.93 18.5599 176.42 18.0499 175.8 18.0499C175.18 18.0499 174.67 18.5599 174.67 19.1799V21.5999C174.67 22.2199 175.18 22.7299 175.8 22.7299Z" fill="#E6E6E6"/>
<path opacity="0.6" d="M163.48 132.5L325.61 132.5V18.06L163.48 18.06V132.5Z" fill="#E0E0E0"/>
<path d="M340.29 205.02H312.33C309.359 205.02 306.95 207.429 306.95 210.4V223.34C306.95 226.311 309.359 228.72 312.33 228.72H340.29C343.261 228.72 345.67 226.311 345.67 223.34V210.4C345.67 207.429 343.261 205.02 340.29 205.02Z" fill="#FAFAFA"/>
<path d="M343.86 200.64H308.76C307.76 200.64 306.95 201.45 306.95 202.45V203.91C306.95 204.91 307.76 205.72 308.76 205.72H343.86C344.86 205.72 345.67 204.91 345.67 203.91V202.45C345.67 201.45 344.86 200.64 343.86 200.64Z" fill="#E6E6E6"/>
<path d="M307.52 255C307.52 255 308.03 271.66 327.45 271.66C346.87 271.66 347.38 255 347.38 255H307.53H307.52Z" fill="#F0F0F0"/>
<path d="M351.8 255C351.8 255 352.31 271.66 371.73 271.66C391.15 271.66 391.66 255 391.66 255H351.81H351.8Z" fill="#F0F0F0"/>
<path d="M382.04 194.28H343.64C339.553 194.28 336.24 197.593 336.24 201.68V221.32C336.24 225.407 339.553 228.72 343.64 228.72H382.04C386.127 228.72 389.44 225.407 389.44 221.32V201.68C389.44 197.593 386.127 194.28 382.04 194.28Z" fill="#F0F0F0"/>
<path d="M386.96 188.27H338.72C337.35 188.27 336.24 189.38 336.24 190.75V192.77C336.24 194.14 337.35 195.25 338.72 195.25H386.96C388.33 195.25 389.44 194.14 389.44 192.77V190.75C389.44 189.38 388.33 188.27 386.96 188.27Z" fill="#F5F5F5"/>
<path d="M292.89 327.45H297.93V244.81H292.89V327.45Z" fill="#E6E6E6"/>
<path d="M438.42 228.72H411.13V244.8H438.42V228.72Z" fill="#E6E6E6"/>
<path d="M275.44 244.8L411.12 244.8V228.72L275.44 228.72V244.8Z" fill="#F5F5F5"/>
<path d="M438.42 271.67H411.13V287.75H438.42V271.67Z" fill="#E6E6E6"/>
<path d="M275.44 287.74H411.12V271.66H275.44V287.74Z" fill="#F5F5F5"/>
<path d="M428.57 327.45H433.61V244.81H428.57V327.45Z" fill="#E6E6E6"/>
<path d="M406.09 327.45H411.13V244.81H406.09V327.45Z" fill="#F5F5F5"/>
<path d="M275.44 327.45H280.48V244.81H275.44V327.45Z" fill="#F5F5F5"/>
<path d="M250 372.61C357.082 372.61 443.89 367.542 443.89 361.29C443.89 355.038 357.082 349.97 250 349.97C142.917 349.97 56.11 355.038 56.11 361.29C56.11 367.542 142.917 372.61 250 372.61Z" fill="#F5F5F5"/>
<path d="M260.41 310.54H132.84C128.62 310.54 125.03 307.12 124.81 302.91L113.39 81.36C113.17 77.15 116.41 73.73 120.63 73.73H248.2C252.42 73.73 256.01 77.15 256.23 81.36L267.65 302.91C267.87 307.13 264.63 310.54 260.41 310.54Z" fill="#407BFF"/>
<path opacity="0.8" d="M260.41 310.54H132.84C128.62 310.54 125.03 307.12 124.81 302.91L113.39 81.36C113.17 77.15 116.41 73.73 120.63 73.73H248.2C252.42 73.73 256.01 77.15 256.23 81.36L267.65 302.91C267.87 307.13 264.63 310.54 260.41 310.54Z" fill="white"/>
<path d="M235.62 66.5H221.51V67.5H235.62V66.5Z" fill="#407BFF"/>
<path d="M216.62 66.5H211.45V67.5H216.62V66.5Z" fill="#407BFF"/>
<path d="M265.9 296.49H143.89C139.86 296.49 136.42 293.22 136.21 289.19L125.29 77.3C125.08 73.27 128.18 70 132.21 70H254.22C258.25 70 261.69 73.27 261.9 77.3L272.82 289.19C273.03 293.22 269.93 296.49 265.9 296.49Z" fill="#407BFF"/>
<path d="M265.9 291.62H143.89C142.47 291.62 141.16 290.37 141.08 288.95L130.16 77.06C130.12 76.29 130.43 75.79 130.7 75.5C130.97 75.22 131.45 74.88 132.21 74.88H254.22C255.64 74.88 256.95 76.13 257.03 77.56L267.95 289.45C267.99 290.22 267.68 290.72 267.41 291.01C267.14 291.29 266.66 291.63 265.9 291.63V291.62ZM132.22 75.13C131.54 75.13 131.12 75.42 130.89 75.67C130.65 75.92 130.38 76.36 130.42 77.04L141.34 288.93C141.41 290.23 142.6 291.37 143.9 291.37H265.91C266.59 291.37 267.01 291.08 267.24 290.83C267.48 290.58 267.75 290.14 267.71 289.46L256.79 77.57C256.72 76.27 255.53 75.13 254.23 75.13H132.22Z" fill="white"/>
<path opacity="0.3" d="M223.233 152.105C237.109 137.866 236.205 114.48 221.214 99.8719C206.224 85.2634 182.822 84.9641 168.946 99.2034C155.07 113.443 155.974 136.828 170.964 151.437C185.955 166.045 209.357 166.345 223.233 152.105Z" fill="white"/>
<path d="M225.97 125.66C226.24 130.82 225.18 135.67 223.09 139.89C218.53 149.2 208.98 155.54 197.62 155.54C186.26 155.54 176.06 149.21 170.54 139.89C168.02 135.66 166.46 130.82 166.2 125.66C165.35 109.15 178.04 95.78 194.54 95.78C211.04 95.78 225.11 109.16 225.96 125.66H225.97Z" fill="white"/>
<path d="M223.1 139.9C218.54 149.21 208.99 155.55 197.63 155.55C186.27 155.55 176.07 149.22 170.55 139.9C177.81 134.87 186.69 131.94 196.41 131.94C206.13 131.94 215.31 134.87 223.09 139.9H223.1Z" fill="#407BFF"/>
<path d="M205.343 124.965C210.342 119.835 210.015 111.408 204.612 106.142C199.209 100.877 190.776 100.768 185.777 105.898C180.778 111.028 181.105 119.455 186.508 124.72C191.911 129.985 200.344 130.095 205.343 124.965Z" fill="#407BFF"/>
<path d="M248.41 214.07H152.88C151.17 214.07 149.72 212.69 149.63 210.98L148.91 196.94C148.82 195.23 150.13 193.85 151.84 193.85H247.37C249.08 193.85 250.53 195.23 250.62 196.94L251.34 210.98C251.43 212.69 250.12 214.07 248.41 214.07Z" fill="white"/>
<path opacity="0.3" d="M219.16 186.14H179.26C177.55 186.14 176.1 184.76 176.01 183.05L175.86 180.07C175.77 178.36 177.08 176.98 178.79 176.98H218.69C220.4 176.98 221.85 178.36 221.94 180.07L222.09 183.05C222.18 184.76 220.87 186.14 219.16 186.14Z" fill="black"/>
<path opacity="0.3" d="M233.99 281.35H174.23C171.32 281.35 168.85 278.99 168.7 276.09L168.34 269.2C168.19 266.29 170.42 263.94 173.33 263.94H233.09C236 263.94 238.47 266.3 238.62 269.2L238.98 276.09C239.13 279 236.9 281.35 233.99 281.35Z" fill="black"/>
<path d="M250.16 247.9H154.63C152.92 247.9 151.47 246.52 151.38 244.81L150.66 230.77C150.57 229.06 151.88 227.68 153.59 227.68H249.12C250.83 227.68 252.28 229.06 252.37 230.77L253.09 244.81C253.18 246.52 251.87 247.9 250.16 247.9Z" fill="white"/>
<path d="M165.03 203.96C165.13 205.85 163.68 207.38 161.79 207.38C159.9 207.38 158.29 205.85 158.19 203.96C158.09 202.07 159.54 200.54 161.43 200.54C163.32 200.54 164.93 202.07 165.03 203.96Z" fill="#263238"/>
<path d="M175.53 203.96C175.63 205.85 174.18 207.38 172.29 207.38C170.4 207.38 168.79 205.85 168.69 203.96C168.59 202.07 170.04 200.54 171.93 200.54C173.82 200.54 175.43 202.07 175.53 203.96Z" fill="#263238"/>
<path d="M186.04 203.96C186.14 205.85 184.69 207.38 182.8 207.38C180.91 207.38 179.3 205.85 179.2 203.96C179.1 202.07 180.55 200.54 182.44 200.54C184.33 200.54 185.94 202.07 186.04 203.96Z" fill="#263238"/>
<path d="M196.55 203.96C196.65 205.85 195.2 207.38 193.31 207.38C191.42 207.38 189.81 205.85 189.71 203.96C189.61 202.07 191.06 200.54 192.95 200.54C194.84 200.54 196.45 202.07 196.55 203.96Z" fill="#263238"/>
<path d="M166.77 237.8C166.87 239.69 165.42 241.22 163.53 241.22C161.64 241.22 160.03 239.69 159.93 237.8C159.83 235.91 161.28 234.38 163.17 234.38C165.06 234.38 166.67 235.91 166.77 237.8Z" fill="#263238"/>
<path d="M177.28 237.8C177.38 239.69 175.93 241.22 174.04 241.22C172.15 241.22 170.54 239.69 170.44 237.8C170.34 235.91 171.79 234.38 173.68 234.38C175.57 234.38 177.18 235.91 177.28 237.8Z" fill="#263238"/>
<path d="M187.79 237.8C187.89 239.69 186.44 241.22 184.55 241.22C182.66 241.22 181.05 239.69 180.95 237.8C180.85 235.91 182.3 234.38 184.19 234.38C186.08 234.38 187.69 235.91 187.79 237.8Z" fill="#263238"/>
<path d="M198.29 237.8C198.39 239.69 196.94 241.22 195.05 241.22C193.16 241.22 191.55 239.69 191.45 237.8C191.35 235.91 192.8 234.38 194.69 234.38C196.58 234.38 198.19 235.91 198.29 237.8Z" fill="#263238"/>
<path d="M208.8 237.8C208.9 239.69 207.45 241.22 205.56 241.22C203.67 241.22 202.06 239.69 201.96 237.8C201.86 235.91 203.31 234.38 205.2 234.38C207.09 234.38 208.7 235.91 208.8 237.8Z" fill="#263238"/>
<path d="M219.31 237.8C219.41 239.69 217.96 241.22 216.07 241.22C214.18 241.22 212.57 239.69 212.47 237.8C212.37 235.91 213.82 234.38 215.71 234.38C217.6 234.38 219.21 235.91 219.31 237.8Z" fill="#263238"/>
</g>
<defs>
<clipPath id="clip0_65_592">
<rect width="500" height="372.61" fill="white"/>
</clipPath>
</defs>
</svg>
