<svg width="500" height="372" viewBox="0 0 500 372" fill="none" xmlns="http://www.w3.org/2000/svg">
<path d="M500 326.914H0V327.164H500V326.914Z" fill="#EBEBEB"/>
<path d="M449.9 342.978H428.22V343.228H449.9V342.978Z" fill="#EBEBEB"/>
<path d="M344.67 337.796H310.56V338.046H344.67V337.796Z" fill="#EBEBEB"/>
<path d="M441.12 333.713H396.59V333.963H441.12V333.713Z" fill="#EBEBEB"/>
<path d="M173.02 338.745H161.88V338.995H173.02V338.745Z" fill="#EBEBEB"/>
<path d="M152.97 338.745H114.58V338.995H152.97V338.745Z" fill="#EBEBEB"/>
<path d="M94.0101 334.531H66.3101V334.781H94.0101V334.531Z" fill="#EBEBEB"/>
<path d="M237.01 282.387H43.91C40.76 282.387 38.2 279.831 38.2 276.686V5.70065C38.2 2.55581 40.76 0 43.91 0H237.01C240.16 0 242.72 2.55581 242.72 5.70065V276.686C242.72 279.831 240.16 282.387 237.01 282.387ZM43.91 0.249591C40.9 0.249591 38.45 2.69558 38.45 5.70065V276.686C38.45 279.691 40.9 282.137 43.91 282.137H237.01C240.02 282.137 242.47 279.691 242.47 276.686V5.70065C242.47 2.69558 240.02 0.249591 237.01 0.249591H43.91Z" fill="#EBEBEB"/>
<path d="M453.31 282.387H260.21C257.06 282.387 254.5 279.831 254.5 276.686V5.70065C254.5 2.55581 257.06 0 260.21 0H453.31C456.46 0 459.02 2.55581 459.02 5.70065V276.686C459.02 279.831 456.46 282.387 453.31 282.387ZM260.21 0.249591C257.2 0.249591 254.75 2.69558 254.75 5.70065V276.686C254.75 279.691 257.2 282.137 260.21 282.137H453.31C456.32 282.137 458.77 279.691 458.77 276.686V5.70065C458.77 2.69558 456.32 0.249591 453.31 0.249591H260.21Z" fill="#EBEBEB"/>
<path d="M114.98 119.474C126.53 119.474 135.89 110.129 135.89 98.5983C135.89 87.0672 126.53 77.7225 114.98 77.7225H112.42V119.474H114.98Z" fill="#E0E0E0"/>
<path d="M112.41 119.474C123.958 119.474 133.32 110.128 133.32 98.5983C133.32 87.0689 123.958 77.7225 112.41 77.7225C100.862 77.7225 91.5 87.0689 91.5 98.5983C91.5 110.128 100.862 119.474 112.41 119.474Z" fill="#F5F5F5"/>
<path d="M111.45 101.224C96.02 101.224 83.46 88.6845 83.46 73.2798V56.5871C83.46 55.1395 84.64 53.9614 86.09 53.9614C87.54 53.9614 88.72 55.1395 88.72 56.5871V73.2798C88.72 85.7992 98.92 95.9725 111.45 95.9725C112.9 95.9725 114.08 97.1506 114.08 98.5982C114.08 100.046 112.9 101.224 111.45 101.224Z" fill="#E0E0E0"/>
<path d="M62.83 71.2831H109.35C112.54 71.2831 114.86 68.268 114.05 65.193L110.01 49.978C109.45 47.8515 107.52 46.3739 105.31 46.3739H66.86C64.66 46.3739 62.73 47.8515 62.16 49.978L58.12 65.193C57.3 68.268 59.63 71.2831 62.82 71.2831H62.83Z" fill="#F5F5F5"/>
<path d="M410.28 119.474C421.83 119.474 431.19 110.129 431.19 98.5983C431.19 87.0672 421.83 77.7225 410.28 77.7225H407.72V119.474H410.28Z" fill="#E0E0E0"/>
<path d="M407.71 119.474C419.258 119.474 428.62 110.128 428.62 98.5983C428.62 87.0689 419.258 77.7225 407.71 77.7225C396.162 77.7225 386.8 87.0689 386.8 98.5983C386.8 110.128 396.162 119.474 407.71 119.474Z" fill="#F5F5F5"/>
<path d="M406.75 101.224C391.32 101.224 378.76 88.6845 378.76 73.2798V56.5871C378.76 55.1395 379.94 53.9614 381.39 53.9614C382.84 53.9614 384.02 55.1395 384.02 56.5871V73.2798C384.02 85.7992 394.22 95.9725 406.75 95.9725C408.2 95.9725 409.38 97.1506 409.38 98.5982C409.38 100.046 408.2 101.224 406.75 101.224Z" fill="#E0E0E0"/>
<path d="M358.13 71.2831H404.65C407.84 71.2831 410.16 68.268 409.35 65.193L405.31 49.978C404.75 47.8515 402.82 46.3739 400.61 46.3739H362.16C359.96 46.3739 358.03 47.8515 357.46 49.978L353.42 65.193C352.6 68.268 354.93 71.2831 358.12 71.2831H358.13Z" fill="#F5F5F5"/>
<path d="M133.98 260.473H149.19V201.639H133.98V260.473Z" fill="#E6E6E6"/>
<path d="M92.7499 260.473H143.22L150.84 191.616H100.37L92.7499 260.473Z" fill="#F0F0F0"/>
<path d="M87.2799 260.473H139.42L147.04 191.616H94.9099L87.2799 260.473Z" fill="#F5F5F5"/>
<path d="M135.65 255.052L142.07 197.037H98.6699L92.2499 255.052H135.65Z" fill="white"/>
<path d="M126.69 240.985L126.95 238.619C128.56 224.062 119.46 211.094 107.64 211.094L107.38 213.46C105.77 228.016 114.87 240.985 126.69 240.985Z" fill="#F5F5F5"/>
<path d="M59.0899 326.914H103.93L103.93 260.473H59.0899L59.0899 326.914Z" fill="#E6E6E6"/>
<path d="M63.59 326.914H59.08V314.105H68.32L63.59 326.914Z" fill="#F0F0F0"/>
<path d="M184.76 326.914H229.6V260.473H184.76V326.914Z" fill="#E6E6E6"/>
<path d="M59.0799 319.047H188.69V260.473H59.0799V319.047Z" fill="#F0F0F0"/>
<path d="M184.18 326.914H188.69V314.105H179.45L184.18 326.914Z" fill="#F0F0F0"/>
<path d="M62.5799 287.778H185.19V264.137H62.5799V287.778Z" fill="#E6E6E6"/>
<path d="M115.71 279.552H132.06C139.16 279.552 145.95 276.636 150.84 271.485H96.9299C101.82 276.636 108.61 279.552 115.71 279.552Z" fill="#F0F0F0"/>
<path d="M62.5799 315.233H185.19V291.592H62.5799V315.233Z" fill="#E6E6E6"/>
<path d="M115.71 307.006H132.06C139.16 307.006 145.95 304.091 150.84 298.94H96.9299C101.82 304.091 108.61 307.006 115.71 307.006Z" fill="#F0F0F0"/>
<path d="M180.48 257.767H181.64C181.63 255.381 181.64 249.341 181.76 235.494C181.97 210.395 182.37 208.857 182.37 208.857L179.61 220.448C177.86 233.277 180.12 246.176 180.48 257.767Z" fill="#E6E6E6"/>
<path d="M178.19 218.721C174.22 213.999 165.74 212.621 157.06 211.443C153.65 210.984 166.02 218.761 172.06 224.282C176.76 228.575 179.76 229.763 181.05 234.036C181.72 228.705 181.61 222.785 178.19 218.711V218.721Z" fill="#E6E6E6"/>
<path d="M183.46 227.157C187.43 222.435 195.91 221.057 204.59 219.879C208 219.42 195.63 227.197 189.59 232.718C184.89 237.011 181.89 238.199 180.6 242.472C179.93 237.141 180.04 231.221 183.46 227.148V227.157Z" fill="#E6E6E6"/>
<path d="M181.76 207.749C184.74 202.109 192.23 196.787 200.63 194.771C203.93 193.982 192.99 205.193 188.83 212.432C185.6 218.052 181.31 224.652 180.65 229.394C179.64 219.999 178.79 213.4 181.76 207.749Z" fill="#E6E6E6"/>
<path d="M181.4 260.473C177.85 260.473 174.92 258.696 174.72 256.429L174.13 252.546H188.67L188.08 256.429C187.88 258.696 184.95 260.473 181.4 260.473Z" fill="#F0F0F0"/>
<path d="M189.62 254.043H173.19L172.72 249.72H190.09L189.62 254.043Z" fill="#F0F0F0"/>
<path d="M169.54 171.489L329.75 171.489V25.598L169.54 25.598L169.54 171.489Z" fill="#E6E6E6"/>
<path d="M165.94 171.489L328.18 171.489V25.598L165.94 25.598L165.94 171.489Z" fill="#F5F5F5"/>
<path d="M321.71 164.96V32.1373L172.41 32.1373V164.96H321.71Z" fill="#FAFAFA"/>
<path d="M303.39 164.95L244.63 32.1373H224.67L283.43 164.95H303.39Z" fill="white"/>
<path d="M277.77 164.95L219.01 32.1373H205.27L264.03 164.95H277.77Z" fill="white"/>
<path d="M227.85 164.95V32.1273H220.13V164.95H227.85Z" fill="#E6E6E6"/>
<path d="M279.17 164.95V32.1273H271.45V164.95H279.17Z" fill="#E6E6E6"/>
<path d="M226.45 169.103V27.2753H216.69V169.103H226.45Z" fill="#F5F5F5"/>
<path d="M277.77 169.103V27.2753H268.01V169.103H277.77Z" fill="#F5F5F5"/>
<path d="M173.09 164.95V32.1273H172.4V164.95H173.09Z" fill="#E6E6E6"/>
<path d="M163.22 17.1918H336.79C337.25 17.1918 337.62 17.5712 337.62 18.0204C337.62 18.4797 337.24 18.8491 336.79 18.8491H163.22C162.76 18.8491 162.39 18.4697 162.39 18.0204C162.39 17.5612 162.77 17.1918 163.22 17.1918Z" fill="#E6E6E6"/>
<path d="M329.75 22.6927C330.37 22.6927 330.88 22.1836 330.88 21.5646V19.1485C330.88 18.5296 330.37 18.0204 329.75 18.0204C329.13 18.0204 328.62 18.5296 328.62 19.1485V21.5646C328.62 22.1836 329.13 22.6927 329.75 22.6927Z" fill="#E6E6E6"/>
<path d="M175.8 22.6927C176.42 22.6927 176.93 22.1836 176.93 21.5646V19.1485C176.93 18.5296 176.42 18.0204 175.8 18.0204C175.18 18.0204 174.67 18.5296 174.67 19.1485V21.5646C174.67 22.1836 175.18 22.6927 175.8 22.6927Z" fill="#E6E6E6"/>
<path opacity="0.6" d="M163.48 132.283L325.61 132.283V18.0304L163.48 18.0304V132.283Z" fill="#E0E0E0"/>
<path d="M340.29 204.684H312.33C309.359 204.684 306.95 207.089 306.95 210.056V222.974C306.95 225.941 309.359 228.346 312.33 228.346H340.29C343.261 228.346 345.67 225.941 345.67 222.974V210.056C345.67 207.089 343.261 204.684 340.29 204.684Z" fill="#FAFAFA"/>
<path d="M343.86 200.312H308.76C307.76 200.312 306.95 201.121 306.95 202.119V203.576C306.95 204.574 307.76 205.383 308.76 205.383H343.86C344.86 205.383 345.67 204.574 345.67 203.576V202.119C345.67 201.121 344.86 200.312 343.86 200.312Z" fill="#E6E6E6"/>
<path d="M307.52 254.583C307.52 254.583 308.03 271.215 327.45 271.215C346.87 271.215 347.38 254.583 347.38 254.583H307.53H307.52Z" fill="#F0F0F0"/>
<path d="M351.8 254.583C351.8 254.583 352.31 271.215 371.73 271.215C391.15 271.215 391.66 254.583 391.66 254.583H351.81H351.8Z" fill="#F0F0F0"/>
<path d="M382.04 193.962H343.64C339.553 193.962 336.24 197.27 336.24 201.35V220.958C336.24 225.038 339.553 228.346 343.64 228.346H382.04C386.127 228.346 389.44 225.038 389.44 220.958V201.35C389.44 197.27 386.127 193.962 382.04 193.962Z" fill="#F0F0F0"/>
<path d="M386.96 187.962H338.72C337.35 187.962 336.24 189.07 336.24 190.438V192.454C336.24 193.822 337.35 194.93 338.72 194.93H386.96C388.33 194.93 389.44 193.822 389.44 192.454V190.438C389.44 189.07 388.33 187.962 386.96 187.962Z" fill="#F5F5F5"/>
<path d="M292.89 326.914H297.93V244.409H292.89V326.914Z" fill="#E6E6E6"/>
<path d="M438.42 228.346H411.13V244.399H438.42V228.346Z" fill="#E6E6E6"/>
<path d="M275.44 244.399L411.12 244.399V228.346L275.44 228.346V244.399Z" fill="#F5F5F5"/>
<path d="M438.42 271.225H411.13V287.279H438.42V271.225Z" fill="#E6E6E6"/>
<path d="M275.44 287.269H411.12V271.215H275.44V287.269Z" fill="#F5F5F5"/>
<path d="M428.57 326.914H433.61V244.409H428.57V326.914Z" fill="#E6E6E6"/>
<path d="M406.09 326.914H411.13V244.409H406.09V326.914Z" fill="#F5F5F5"/>
<path d="M275.44 326.914H280.48V244.409H275.44V326.914Z" fill="#F5F5F5"/>
<path d="M250 372C357.082 372 443.89 366.94 443.89 360.699C443.89 354.457 357.082 349.397 250 349.397C142.917 349.397 56.11 354.457 56.11 360.699C56.11 366.94 142.917 372 250 372Z" fill="#F5F5F5"/>
<path d="M260.41 310.032H132.84C128.62 310.032 125.03 306.617 124.81 302.414L113.39 81.2268C113.17 77.0237 116.41 73.6093 120.63 73.6093H248.2C252.42 73.6093 256.01 77.0237 256.23 81.2268L267.65 302.414C267.87 306.627 264.63 310.032 260.41 310.032Z" fill="#407BFF"/>
<path opacity="0.8" d="M260.41 310.032H132.84C128.62 310.032 125.03 306.617 124.81 302.414L113.39 81.2268C113.17 77.0237 116.41 73.6093 120.63 73.6093H248.2C252.42 73.6093 256.01 77.0237 256.23 81.2268L267.65 302.414C267.87 306.627 264.63 310.032 260.41 310.032Z" fill="white"/>
<path d="M235.62 66.3911H221.51V67.3895H235.62V66.3911Z" fill="#407BFF"/>
<path d="M216.62 66.3911H211.45V67.3895H216.62V66.3911Z" fill="#407BFF"/>
<path d="M265.9 296.005H143.89C139.86 296.005 136.42 292.74 136.21 288.717L125.29 77.1734C125.08 73.15 128.18 69.8854 132.21 69.8854H254.22C258.25 69.8854 261.69 73.15 261.9 77.1734L272.82 288.717C273.03 292.74 269.93 296.005 265.9 296.005Z" fill="#407BFF"/>
<path d="M265.9 291.143H143.89C142.47 291.143 141.16 289.895 141.08 288.477L130.16 76.9339C130.12 76.1651 130.43 75.666 130.7 75.3764C130.97 75.0969 131.45 74.7574 132.21 74.7574H254.22C255.64 74.7574 256.95 76.0054 257.03 77.4331L267.95 288.976C267.99 289.745 267.68 290.244 267.41 290.534C267.14 290.813 266.66 291.153 265.9 291.153V291.143ZM132.22 75.007C131.54 75.007 131.12 75.2966 130.89 75.5462C130.65 75.7957 130.38 76.235 130.42 76.9139L141.34 288.457C141.41 289.755 142.6 290.893 143.9 290.893H265.91C266.59 290.893 267.01 290.604 267.24 290.354C267.48 290.104 267.75 289.665 267.71 288.986L256.79 77.443C256.72 76.1452 255.53 75.007 254.23 75.007H132.22Z" fill="white"/>
<path opacity="0.3" d="M223.233 151.856C237.109 137.64 236.205 114.293 221.214 99.7083C206.224 85.1237 182.822 84.8249 168.946 99.0409C155.07 113.257 155.974 136.604 170.965 151.189C185.955 165.773 209.357 166.072 223.233 151.856Z" fill="white"/>
<path d="M225.97 125.454C226.24 130.606 225.18 135.448 223.09 139.661C218.53 148.956 208.98 155.285 197.62 155.285C186.26 155.285 176.06 148.966 170.54 139.661C168.02 135.438 166.46 130.606 166.2 125.454C165.35 108.971 178.04 95.6232 194.54 95.6232C211.04 95.6232 225.11 108.981 225.96 125.454H225.97Z" fill="white"/>
<path d="M223.1 139.671C218.54 148.966 208.99 155.295 197.63 155.295C186.27 155.295 176.07 148.976 170.55 139.671C177.81 134.649 186.69 131.724 196.41 131.724C206.13 131.724 215.31 134.649 223.09 139.671H223.1Z" fill="#407BFF"/>
<path d="M205.343 124.76C210.342 119.638 210.015 111.225 204.612 105.969C199.209 100.712 190.776 100.603 185.777 105.724C180.778 110.846 181.105 119.259 186.508 124.516C191.911 129.772 200.344 129.882 205.343 124.76Z" fill="#407BFF"/>
<path d="M248.41 213.719H152.88C151.17 213.719 149.72 212.342 149.63 210.635L148.91 196.618C148.82 194.91 150.13 193.533 151.84 193.533H247.37C249.08 193.533 250.53 194.91 250.62 196.618L251.34 210.635C251.43 212.342 250.12 213.719 248.41 213.719Z" fill="white"/>
<path opacity="0.3" d="M219.16 185.835H179.26C177.55 185.835 176.1 184.457 176.01 182.75L175.86 179.775C175.77 178.068 177.08 176.69 178.79 176.69H218.69C220.4 176.69 221.85 178.068 221.94 179.775L222.09 182.75C222.18 184.457 220.87 185.835 219.16 185.835Z" fill="black"/>
<path opacity="0.3" d="M233.99 280.889H174.23C171.32 280.889 168.85 278.533 168.7 275.638L168.34 268.759C168.19 265.854 170.42 263.508 173.33 263.508H233.09C236 263.508 238.47 265.864 238.62 268.759L238.98 275.638C239.13 278.543 236.9 280.889 233.99 280.889Z" fill="black"/>
<path d="M250.16 247.494H154.63C152.92 247.494 151.47 246.116 151.38 244.409L150.66 230.392C150.57 228.685 151.88 227.307 153.59 227.307H249.12C250.83 227.307 252.28 228.685 252.37 230.392L253.09 244.409C253.18 246.116 251.87 247.494 250.16 247.494Z" fill="white"/>
<path d="M165.03 203.626C165.13 205.513 163.68 207.04 161.79 207.04C159.9 207.04 158.29 205.513 158.19 203.626C158.09 201.739 159.54 200.212 161.43 200.212C163.32 200.212 164.93 201.739 165.03 203.626Z" fill="#263238"/>
<path d="M175.53 203.626C175.63 205.513 174.18 207.04 172.29 207.04C170.4 207.04 168.79 205.513 168.69 203.626C168.59 201.739 170.04 200.212 171.93 200.212C173.82 200.212 175.43 201.739 175.53 203.626Z" fill="#263238"/>
<path d="M186.04 203.626C186.14 205.513 184.69 207.04 182.8 207.04C180.91 207.04 179.3 205.513 179.2 203.626C179.1 201.739 180.55 200.212 182.44 200.212C184.33 200.212 185.94 201.739 186.04 203.626Z" fill="#263238"/>
<path d="M196.55 203.626C196.65 205.513 195.2 207.04 193.31 207.04C191.42 207.04 189.81 205.513 189.71 203.626C189.61 201.739 191.06 200.212 192.95 200.212C194.84 200.212 196.45 201.739 196.55 203.626Z" fill="#263238"/>
<path d="M166.77 237.411C166.87 239.298 165.42 240.825 163.53 240.825C161.64 240.825 160.03 239.298 159.93 237.411C159.83 235.524 161.28 233.996 163.17 233.996C165.06 233.996 166.67 235.524 166.77 237.411Z" fill="#263238"/>
<path d="M177.28 237.411C177.38 239.298 175.93 240.825 174.04 240.825C172.15 240.825 170.54 239.298 170.44 237.411C170.34 235.524 171.79 233.996 173.68 233.996C175.57 233.996 177.18 235.524 177.28 237.411Z" fill="#263238"/>
<path d="M187.79 237.411C187.89 239.298 186.44 240.825 184.55 240.825C182.66 240.825 181.05 239.298 180.95 237.411C180.85 235.524 182.3 233.996 184.19 233.996C186.08 233.996 187.69 235.524 187.79 237.411Z" fill="#263238"/>
<path d="M198.29 237.411C198.39 239.298 196.94 240.825 195.05 240.825C193.16 240.825 191.55 239.298 191.45 237.411C191.35 235.524 192.8 233.996 194.69 233.996C196.58 233.996 198.19 235.524 198.29 237.411Z" fill="#263238"/>
<path d="M208.8 237.411C208.9 239.298 207.45 240.825 205.56 240.825C203.67 240.825 202.06 239.298 201.96 237.411C201.86 235.524 203.31 233.996 205.2 233.996C207.09 233.996 208.7 235.524 208.8 237.411Z" fill="#263238"/>
<path d="M219.31 237.411C219.41 239.298 217.96 240.825 216.07 240.825C214.18 240.825 212.57 239.298 212.47 237.411C212.37 235.524 213.82 233.996 215.71 233.996C217.6 233.996 219.21 235.524 219.31 237.411Z" fill="#263238"/>
<path d="M333.03 121.471C333.28 121.84 333.41 122.04 333.57 122.309L334.02 123.058C334.31 123.547 334.56 124.047 334.82 124.536C335.32 125.524 335.79 126.513 336.22 127.511C337.08 129.508 337.78 131.544 338.39 133.601C339.62 137.704 340.37 141.907 340.76 146.12L340.84 146.909C340.85 147.019 340.86 147.199 340.87 147.388L340.89 147.927C340.9 148.636 340.87 149.335 340.77 150.004C340.58 151.342 340.22 152.58 339.78 153.718C338.88 155.994 337.65 157.931 336.32 159.688C333.61 163.192 330.53 165.998 327.01 168.484L324.26 165.259C326.73 162.404 329.13 159.239 330.9 156.084C331.8 154.507 332.5 152.889 332.93 151.372C333.13 150.613 333.24 149.884 333.26 149.235C333.28 148.906 333.26 148.596 333.23 148.307L333.2 148.097C333.2 148.037 333.19 147.957 333.16 147.828L333.03 147.129C332.38 143.385 331.48 139.701 330.31 136.147C329.74 134.36 329.02 132.643 328.3 130.945C327.94 130.097 327.55 129.268 327.15 128.469L326.53 127.301L326.22 126.742L325.97 126.303L333.05 121.491L333.03 121.471Z" fill="#803E3C"/>
<path d="M323.7 168.544L327.32 176.181L330.19 169.732C330.19 169.732 327.65 164.141 324.2 164.65L323.7 168.554V168.544Z" fill="#7F3E3B"/>
<path d="M329.91 176.56L332.79 171.848L330.19 169.722L327.32 176.181L329.91 176.56Z" fill="#7F3E3B"/>
<path d="M313.63 352.682C314.4 352.682 315.25 352.522 315.84 352.382C315.92 352.362 315.98 352.302 315.99 352.222C316 352.143 315.97 352.063 315.9 352.023C315.61 351.833 313.07 350.196 312.09 350.635C311.94 350.705 311.74 350.855 311.7 351.194C311.64 351.633 311.75 351.993 312.03 352.242C312.39 352.572 312.98 352.682 313.63 352.682ZM315.28 352.103C313.82 352.392 312.73 352.342 312.3 351.953C312.12 351.793 312.05 351.553 312.1 351.244C312.12 351.074 312.2 351.024 312.27 350.994C312.78 350.755 314.25 351.474 315.29 352.093L315.28 352.103Z" fill="#407BFF"/>
<path d="M315.8 352.392C315.8 352.392 315.87 352.392 315.9 352.362C315.96 352.322 316 352.262 316 352.193C316 352.093 315.99 349.687 315.08 348.878C314.84 348.668 314.55 348.578 314.24 348.608C313.74 348.668 313.61 348.978 313.57 349.158C313.38 350.096 314.9 351.903 315.7 352.352C315.73 352.372 315.76 352.382 315.8 352.382V352.392ZM314.37 349.008C314.53 349.008 314.68 349.068 314.81 349.177C315.35 349.657 315.54 351.014 315.59 351.813C314.79 351.174 313.84 349.826 313.96 349.247C313.98 349.158 314.03 349.038 314.29 349.008C314.32 349.008 314.35 349.008 314.38 349.008H314.37Z" fill="#407BFF"/>
<path d="M304.19 348.608C304.24 348.558 304.25 348.489 304.23 348.419C304.21 348.339 304.13 348.279 304.05 348.279C303.63 348.259 300.04 348.109 299.23 348.988C299.21 349.008 299.2 349.028 299.18 349.048C299.05 349.227 299.02 349.447 299.09 349.667C299.22 350.036 299.47 350.286 299.82 350.395C300.98 350.755 303.03 349.457 304.15 348.648C304.16 348.648 304.17 348.628 304.18 348.618L304.19 348.608ZM299.53 349.237C299.98 348.758 301.95 348.628 303.44 348.648C301.88 349.707 300.6 350.206 299.94 350.006C299.71 349.936 299.56 349.777 299.47 349.527C299.43 349.427 299.44 349.347 299.5 349.277C299.5 349.267 299.52 349.257 299.53 349.247V349.237Z" fill="#407BFF"/>
<path d="M304.19 348.608C304.19 348.608 304.21 348.588 304.22 348.578C304.26 348.518 304.26 348.439 304.22 348.379C304.17 348.299 303.06 346.332 301.73 345.973C301.33 345.863 300.94 345.913 300.59 346.122C300.11 346.402 300.09 346.721 300.15 346.941C300.41 347.87 302.96 348.678 304.05 348.678C304.11 348.678 304.16 348.658 304.19 348.618V348.608ZM300.6 346.612C300.6 346.612 300.7 346.522 300.79 346.462C301.05 346.312 301.32 346.272 301.63 346.352C302.5 346.582 303.32 347.7 303.68 348.249C302.5 348.109 300.69 347.38 300.53 346.831C300.53 346.801 300.5 346.711 300.6 346.602V346.612Z" fill="#407BFF"/>
<path d="M315.2 92.2288C314.23 97.1906 312.04 108.013 315.51 111.327C315.51 111.327 314.15 116.359 304.92 116.359C294.76 116.359 300.07 111.327 300.07 111.327C305.61 110.01 305.47 105.896 304.5 102.043L315.2 92.2288Z" fill="#7F3E3B"/>
<path d="M298.28 80.5279C298.34 80.5279 298.4 80.5179 298.46 80.4879C298.66 80.3881 298.74 80.1485 298.64 79.9588C297.66 78.002 295.84 77.7724 295.76 77.7624C295.54 77.7325 295.35 77.8922 295.32 78.1118C295.3 78.3315 295.45 78.5212 295.67 78.5511C295.73 78.5511 297.15 78.7508 297.93 80.3182C298 80.458 298.14 80.5379 298.28 80.5379V80.5279Z" fill="#263238"/>
<path d="M295.25 84.8608C295.25 84.8608 293.75 87.6063 292.33 88.8343C293.11 89.7728 294.66 89.5731 294.66 89.5731L295.25 84.8508V84.8608Z" fill="#630F0F"/>
<path d="M295.99 83.7826C295.91 84.4515 295.48 84.9507 295.05 84.9008C294.61 84.8509 294.32 84.2618 294.41 83.5929C294.5 82.924 294.92 82.4248 295.35 82.4748C295.79 82.5247 296.08 83.1137 295.99 83.7826Z" fill="#263238"/>
<path d="M295.54 82.5346L293.99 81.8757C293.99 81.8757 294.66 83.2335 295.54 82.5346Z" fill="#263238"/>
<path d="M313.02 346.711L304.86 348.618L299.9 329.889L308.06 327.982L313.02 346.711Z" fill="#7F3E3B"/>
<path d="M325.54 352.192H317.16L317.82 332.824H326.2L325.54 352.192Z" fill="#7F3E3B"/>
<path d="M316.5 351.224H325.91C326.25 351.224 326.53 351.464 326.58 351.793L327.65 359.231C327.76 360 327.1 360.728 326.31 360.719C323.03 360.659 321.45 360.469 317.31 360.469C314.76 360.469 311.04 360.729 307.53 360.729C304.02 360.729 303.83 357.254 305.29 356.945C311.85 355.537 312.89 353.59 315.1 351.733C315.5 351.404 316 351.214 316.5 351.214V351.224Z" fill="#263238"/>
<path d="M304.14 347.37L312.69 343.447C313 343.307 313.35 343.407 313.54 343.686L317.63 349.996C318.05 350.655 317.76 351.593 317.03 351.903C314.03 353.221 312.51 353.71 308.75 355.437C306.44 356.495 301.76 358.941 298.57 360.399C295.45 361.837 293.75 358.792 294.95 357.893C300.32 353.87 301.86 351.034 303.09 348.419C303.31 347.949 303.69 347.58 304.15 347.37H304.14Z" fill="#263238"/>
<path opacity="0.2" d="M299.91 329.889L302.56 339.923L310.62 337.646L308.07 327.992L299.91 329.889Z" fill="black"/>
<path opacity="0.2" d="M326.2 332.834H317.82L317.49 342.818H325.87L326.2 332.834Z" fill="black"/>
<path d="M329.96 113.224C333.44 113.983 337.16 126.483 337.16 126.483L327.32 136.925C327.32 136.925 319.16 125.185 320.82 120.872C322.55 116.379 325.85 112.326 329.96 113.224Z" fill="#263238"/>
<path opacity="0.4" d="M324.44 121.181C322.68 119.574 321.49 120.053 320.68 121.331C319.88 125.045 324.62 132.822 326.53 135.767C327.41 132.253 328.42 124.835 324.44 121.181Z" fill="black"/>
<path d="M285.91 113.464C285.91 113.464 281.92 114.872 289.91 163.931H323.93C323.36 150.104 323.34 141.588 329.96 113.214C329.96 113.214 322.83 111.667 315.51 111.317C309.79 111.038 305.1 110.858 300.06 111.317C293.43 111.926 285.9 113.464 285.9 113.464H285.91Z" fill="#263238"/>
<path opacity="0.4" d="M285.6 132.303C285.82 134.689 286.11 137.375 286.49 140.41C289.28 137.904 291.55 130.776 290.72 126.622C288.77 128.07 286.97 130.306 285.6 132.303Z" fill="black"/>
<path d="M289.24 124.865C287.39 129.528 285.35 133.97 283.06 138.403C280.77 142.826 278.32 147.169 275.07 151.382L274.43 152.17L274.11 152.56C274 152.69 273.91 152.809 273.74 152.989C273.12 153.668 272.45 154.257 271.76 154.746C270.38 155.725 268.96 156.354 267.58 156.833C264.82 157.761 262.14 158.091 259.54 158.25C254.31 158.46 249.37 157.981 244.38 156.903L244.93 152.7C247.23 152.71 249.64 152.66 251.96 152.51C254.3 152.39 256.61 152.14 258.83 151.741C261.04 151.372 263.18 150.813 264.97 150.034C265.85 149.645 266.62 149.165 267.18 148.686C267.46 148.446 267.69 148.207 267.86 147.967C267.9 147.937 267.99 147.798 268.06 147.698L268.29 147.368L268.76 146.709C271.22 143.075 273.39 138.842 275.45 134.619C277.48 130.376 279.44 125.973 281.27 121.67L289.22 124.855L289.24 124.865Z" fill="#803E3C"/>
<path d="M285.91 113.464C281.75 114.472 276.62 125.884 276.62 125.884L285.26 138.563C285.26 138.563 296.76 124.106 295.4 119.684C293.98 115.081 290.96 112.236 285.91 113.464Z" fill="#263238"/>
<path d="M247.33 153.309L240.12 149.984L239.4 157.142C239.4 157.142 245.42 158.909 248.39 157.102L247.33 153.319V153.309Z" fill="#7F3E3B"/>
<path d="M235.81 149.265L235.12 154.706L239.4 157.142L240.12 149.984L235.81 149.265Z" fill="#7F3E3B"/>
<path d="M318.82 84.2717C317.3 92.4284 316.82 95.9127 312.14 99.6266C305.1 105.197 295.39 101.543 294.45 93.0973C293.6 85.4897 296.23 73.4295 304.7 71.1533C313.04 68.9069 320.35 76.1151 318.82 84.2717Z" fill="#7F3E3B"/>
<path d="M300.87 85.9889C300.4 90.1521 300.22 100.954 309.38 101.294C320.6 101.713 323.96 92.1389 322.96 88.3151C328.79 83.5729 329.64 75.4163 323.08 69.1765C316.52 62.9368 302.08 66.421 298.05 72.5011C293.05 80.0387 300.88 85.979 300.88 85.979L300.87 85.9889Z" fill="#263238"/>
<path d="M312.1 71.6125C311.56 67.2297 311.98 64.1947 316.09 64.1947C320.2 64.1947 325.83 65.6823 327.89 69.8854C329.95 74.0885 330.12 80.6677 324.37 79.9988C318.62 79.3299 312.75 76.8639 312.1 71.6026V71.6125Z" fill="#407BFF"/>
<path d="M318.48 70.5543C317.5 65.3229 322.17 50.587 333.57 49.6286C338.85 49.1893 341.29 54.86 338.53 55.7885C343.52 55.7286 346.73 62.3278 342.07 63.3161C345.76 65.6723 344.84 70.5044 339.59 72.8805C335.72 74.6276 319.85 77.7924 318.49 70.5443L318.48 70.5543Z" fill="#263238"/>
<path d="M330.65 76.1751C326.98 76.1751 323.15 75.636 320.77 74.0486C319.33 73.0802 318.54 71.8023 318.42 70.2448C318.41 70.1051 318.51 69.9853 318.65 69.9753C318.8 69.9653 318.91 70.0651 318.92 70.2049C319.03 71.6026 319.74 72.7507 321.05 73.6293C325.57 76.6543 336.03 75.6759 339.31 74.6077C342.13 73.6892 344.04 71.9121 344.42 69.8455C344.7 68.328 344.1 66.9003 342.75 65.8021C342.64 65.7123 342.63 65.5625 342.71 65.4527C342.8 65.3429 342.95 65.3329 343.06 65.4128C344.55 66.6108 345.22 68.2581 344.91 69.9353C344.5 72.1817 342.46 74.1085 339.47 75.0769C337.75 75.636 334.29 76.1651 330.65 76.1651V76.1751Z" fill="#263238"/>
<path d="M298.32 84.8907C297.32 86.2784 297.03 88.0056 297.25 89.3933C297.58 91.4899 299.63 91.6297 301.11 90.2819C302.44 89.0739 303.87 86.528 302.78 84.7909C301.71 83.0837 299.47 83.2933 298.32 84.8807V84.8907Z" fill="#7F3E3B"/>
<path d="M298.89 163.941C298.89 163.941 303.75 221.337 308.79 253.684C312.86 279.811 316.08 340.881 316.08 340.881H327.5C327.5 340.881 331.56 281.638 329.49 255.791C324.26 190.398 335.93 185.076 323.92 163.931H298.88L298.89 163.941Z" fill="#407BFF"/>
<path opacity="0.4" d="M313.27 185.636C308.66 190.338 305.15 195.959 302.48 201.889C303.81 214.788 305.39 229.104 307.07 241.644C312.27 228.535 316.72 208.368 313.27 185.636Z" fill="black"/>
<path d="M290.9 163.582C290.9 163.582 280.35 226.269 278.69 254.523C282.83 280.65 299.77 335.879 299.77 335.879L310.16 332.125C310.16 332.125 304.41 271.904 298.13 255.421C312.2 208.129 322.54 196.178 319.53 163.951C312.35 163.951 290.9 163.592 290.9 163.592V163.582Z" fill="#407BFF"/>
<path d="M298.38 338.635L312.42 334.821L311.62 329.24L296.59 333.293L298.38 338.635Z" fill="#263238"/>
<path d="M314.52 341.111H329.07L329.83 336.009L314.44 335.49L314.52 341.111Z" fill="#263238"/>
<path d="M324.44 161.944L325.97 164.989C326.09 165.229 325.81 165.469 325.42 165.469H289.74C289.43 165.469 289.18 165.319 289.16 165.129L288.85 162.084C288.83 161.875 289.09 161.695 289.43 161.695H323.88C324.13 161.695 324.36 161.795 324.43 161.954L324.44 161.944Z" fill="#407BFF"/>
<path opacity="0.5" d="M324.44 161.944L325.97 164.989C326.09 165.229 325.81 165.469 325.42 165.469H289.74C289.43 165.469 289.18 165.319 289.16 165.129L288.85 162.084C288.83 161.875 289.09 161.695 289.43 161.695H323.88C324.13 161.695 324.36 161.795 324.43 161.954L324.44 161.944Z" fill="black"/>
<path d="M319.81 165.788H320.73C320.91 165.788 321.05 165.698 321.04 165.578L320.61 161.625C320.6 161.505 320.44 161.415 320.25 161.415H319.33C319.15 161.415 319.01 161.505 319.02 161.625L319.45 165.578C319.46 165.698 319.62 165.788 319.81 165.788Z" fill="#407BFF"/>
<path d="M307.43 136.696C307.2 136.696 307.01 136.546 306.95 136.326C303.69 124.296 296.91 114.392 293.67 112.865C293.31 112.695 293.01 112.645 292.83 112.725C292.58 112.835 292.28 112.725 292.17 112.476C292.06 112.226 292.17 111.926 292.42 111.817C292.89 111.607 293.45 111.657 294.1 111.966C297.55 113.594 304.39 123.378 307.81 135.697C310.26 135.667 314.04 135.358 314.96 135.288C316.1 133.93 324.49 123.467 321.35 112.026C321.28 111.757 321.43 111.487 321.7 111.417C321.96 111.347 322.24 111.497 322.31 111.767C325.8 124.506 315.68 135.997 315.57 136.107C315.49 136.197 315.37 136.257 315.24 136.267C315.19 136.267 310.2 136.706 307.42 136.706L307.43 136.696Z" fill="#407BFF"/>
<path d="M323.99 143.754C318.54 133.551 316.31 132.842 315.34 129.557C315.34 129.557 316.22 127.082 318.45 124.576C317.78 124.386 316.37 124.106 315.48 123.937C315.58 123.487 315.68 123.048 315.79 122.629C315.05 122.429 313.52 122.629 312.74 122.769L312.71 121.76C312.71 121.76 309.95 121.211 308.83 121.511C308.94 121.97 309.05 122.459 309.16 122.948C308.19 123.138 306.63 123.447 305.9 123.647C308.02 126.033 308.79 128.579 308.95 129.208C306.01 134.24 294.59 166.657 313.17 169.093C331.76 171.529 329.45 153.947 324 143.744L323.99 143.754Z" fill="#407BFF"/>
<path opacity="0.4" d="M323.99 143.754C318.54 133.551 316.31 132.842 315.34 129.557C315.34 129.557 316.22 127.082 318.45 124.576C317.78 124.386 316.37 124.106 315.48 123.937C315.58 123.487 315.68 123.048 315.79 122.629C315.05 122.429 313.52 122.629 312.74 122.769L312.71 121.76C312.71 121.76 309.95 121.211 308.83 121.511C308.94 121.97 309.05 122.459 309.16 122.948C308.19 123.138 306.63 123.447 305.9 123.647C308.02 126.033 308.79 128.579 308.95 129.208C306.01 134.24 294.59 166.657 313.17 169.093C331.76 171.529 329.45 153.947 324 143.744L323.99 143.754Z" fill="white"/>
<path d="M308.26 128.25C308.12 128.499 308.14 129.438 308.11 129.807C308.08 130.176 309.09 130.426 310.21 130.536C311.33 130.646 315.98 130.825 315.83 130.306C315.68 129.787 316.06 129.078 316.08 128.639C316.1 128.2 314.23 128.18 312.66 128.24C311.09 128.3 308.56 127.681 308.24 128.24L308.26 128.25Z" fill="#407BFF"/>
<path d="M297.45 165.788H298.37C298.55 165.788 298.69 165.698 298.68 165.578L298.25 161.625C298.24 161.505 298.08 161.415 297.89 161.415H296.97C296.79 161.415 296.65 161.505 296.66 161.625L297.09 165.578C297.1 165.698 297.26 165.788 297.45 165.788Z" fill="#407BFF"/>
</svg>
